<?xml version="1.0" encoding="UTF-8"?>
<svg id="Layer_1" data-name="Layer 1" xmlns="http://www.w3.org/2000/svg" viewBox="0 0 1080 1080">
  <defs>
    <style>
      .cls-1 {
        fill: #eba381;
      }

      .cls-2 {
        fill: #96715e;
      }

      .cls-3 {
        fill: #7eaf4a;
      }

      .cls-4 {
        fill: #d46736;
      }

      .cls-5 {
        fill: #616652;
      }

      .cls-6 {
        fill: #0f682c;
      }

      .cls-7 {
        fill: #f2f2f2;
      }

      .cls-8 {
        fill: #d13231;
      }

      .cls-9 {
        fill: #a3c085;
      }

      .cls-10 {
        fill: #c98058;
      }

      .cls-11 {
        fill: #7d181c;
      }

      .cls-12 {
        fill: #fff5eb;
      }

      .cls-13 {
        fill: #935753;
      }
    </style>
  </defs>
  <rect class="cls-7" width="1080" height="1080"/>
  <g>
    <path class="cls-3" d="M504.94,952.46l.54-74.43c.02-16.19.48-32.53-1.54-48.6-.43-3.44,0-3.76-2.2-5.46-.92-4.14-.54-17.19-.78-22.08-.72-14.67-1.34-29.58-2.42-44.22-.3-5.78-2.35-12.47-2.49-18.11-.36-14.37-2.27-27.39-4.64-41.5-1.38-8.24-.66-18.65-1.71-27.2-1.93-15.66-2.73-31.6-3.92-47.34-1.3-28.21-1.13-56.7-1.43-84.94-.18-17.28-.25-34.62.33-51.88.29-8.77-.07-19.08.6-27.68.66-8.48,2.53-17.95,3.34-26.69.65-6.92,1.76-15.04,2.69-21.93.65-4.85,4.21-13.28,5.66-18.4,2.04-5.76,2.48-11.83,4.22-17.65,4.5-15.09,9.07-31.15,14.36-45.92,2.29-6.38,7.74-13.82,10.73-19.99,3.78-7.81,7.48-15.51,11.73-23.02,15.55-23.17,40.05-45.85,63.27-60.78.61,2.85.11,3.01,1.85,4.41l3.65-.19c-4.73,7.56-9.84,12.69-14.41,20.44-2.62,4.44-5.23,14.08-7.44,17.24-6.51,9.13-12.73,18.51-16.74,29.07-3.43,9.04-4.19,18.74-7.24,28.05-2.36,7.2-9.95,21.55-5.84,28.54,1.15.53,1.15.6,2.37.88,5.42-8.25,8.74-17.22,14.23-25.62,8.65-13.25,27.22-27.06,42.48-31.4,16.02-4.55,33.66,10.71,36.13,25.87,1.92,11.78,1.85,35.5-4.35,46.31,2.32,3.33,5.86,5.62,9.2,7.89,3.26-3.45,3.73-5.48,5.88-9.6l.78-.42c7.63-4.17,13.92-10.33,21.27-14.65,18.42-10.84,36.5-23.32,55.75-32.57,4.94-2.37,11.87-2.35,15.96-6.41,1.78-1.72,2.93-2.78,5.27-3.29,7.38,1.33,7.52,9.91,3.5,12.81-13.78,9.94-24.54,21.03-36.13,33.31-6,6.36-14.25,10.31-19.39,17.75-14.03,17.93-28,36.73-39.62,56.3-4.43,7.47-7.65,11.76-11.51,19.92-4.73,10-7.28,19.85-11.44,29.7-1.51,5.11-2,8.3-2.82,13.52-7.99,3.86-5.43,7.78-8.29,14.95-1.37,7.74-3.44,12.23-5.42,19.5-1.33,5.62-1.31,11.59-2.42,17.22-.97,4.88-3.06,9.86-4.12,14.73-1.21,5.54-1.76,11.34-2.69,16.94-.53,3.16-1.38,6.92-1.52,10.04-.5,11.8-.48,23.66-.58,35.47.02,10.58-.15,25.89.94,36.19,1.37,12.95,4.73,27.45,7.65,40.09,1.56,6.77,1.85,15.26,3.7,22.05,1.76,6.47,4.02,12.99,5.93,19.45,1.26,4.25,1.4,11.64,2.7,15.17,4.89,13.26,9.9,26.58,15.12,39.71,3.37,8.47,5.09,19.01,8.61,27.09,4.66,10.72,10.78,19.63,15.72,30.65,3.67,8.18,6.85,17.96,10.46,25.51,4.74,8.98,10.3,17.59,15.25,26.45,5.59,10.02,10.38,20.4,16.95,29.85,1.89,2.71,3.88,4.48,6.23,6.75,1.37,7.59,1.01,6.97,7.65,11.04l-.82.75c-7.24-.83-28.77-25.74-36.09-30.05-11.77-5.97-5.74,2.46-13.72-11-3.48-4.74-6.76-7.64-10.87-11.93-7.45-7.9-15.93-15.22-22.59-23.79-1.5-1.92-3.11-5.06-4.86-6.63-8.65-7.82-15.62-16.73-23.24-25.47-4.06-4.66-10.17-9.07-13.9-13.89-10.19-13.26-17.61-28.11-28.78-40.73-2.02-2.28-4.82-8.07-6.88-10.83-6.66-8.93-13.74-15.86-17.38-26.62-.56-1.66-6-1.16-6.3-3.17-1.08-3.32-.58-9.5-3.53-11.18-4.83,3.99-3.05,34.21-3.03,41.67-.05,15.07-.42,30.14-1.13,45.2-.32,8-1.91,15.23-2.73,23.2-4.22,41-12.49,82.9-27.05,121.55-1.1,2.93-1.43,6.26-2.54,8.85.2-.72-7.59,11.74-8.44,13.51.28-7.25-.87-21.55,1.62-27.55,2.29-5.52,2.09-3.65,2.66-10.79Z"/>
    <path class="cls-6" d="M557.48,353.08c5.42-8.25,8.74-17.22,14.23-25.62,8.65-13.25,27.22-27.06,42.48-31.4,16.02-4.55,33.66,10.71,36.13,25.87,1.92,11.78,1.85,35.5-4.35,46.31-1.95,4.54-1.49,7.23-4.25,12.08-3.11,3.14-8.83,24.53-14.81,32.22-9.55,12.29-21.91,21.42-31.37,32.99-7.95,12.09-23.01,32.26-27.59,45.54-9.31,26.97-10.93,67.88-8.89,96.38.99,13.81,5.51,27.71,6.11,42.16.5,12.03,11.8,28.89,10.35,41.75-.14,1.38-3.18,6.2-4.51,7.17l-.69-.35c-1.93-11.95-13.25-31.43-17.28-44.21-4.26-13.51-9.12-26.26-11.84-40.4-1.28-6.67-4.32-13.78-5.48-20.6-1.4-9.88-2.75-22.41-1.52-32.32,1.85-11.44,3.8-22.34,4.14-34,.45-15.71,7.52-30.42,7.92-46.28.13-5.32.68-7.56,3.58-11.93.31-16.11-2-18.74-4.36-33.99-1.43-9.23,3.07-38.69,5.01-49.29.1-.55,6.21-10.75,6.98-12.11Z"/>
    <path class="cls-9" d="M500.66,990.8c.28-7.25-.87-21.55,1.62-27.55,2.29-5.52,2.09-3.65,2.66-10.79.29,4.84.96,22.61,4.16,24.83.2-.72-7.59,11.74-8.44,13.51Z"/>
    <path class="cls-9" d="M634.39,507.45c.03-1.93.66-4.61.39-6.41-1.46-9.6-1.29-20.07,10.71-22.06-1.51,5.11-2,8.3-2.82,13.52-7.99,3.86-5.43,7.78-8.29,14.95Z"/>
    <path class="cls-9" d="M641.71,380.32c2.76-4.85,2.3-7.54,4.25-12.08,2.32,3.33,5.86,5.62,9.2,7.89-3.42,2.93-7.56,8.43-10.79,8.22-1.38-1.27-2.06-2.17-2.66-4.03Z"/>
    <path class="cls-9" d="M683.92,911.07c1.82.75,2.1.76,3.32,2.38,3.28.35,5.28-.5,7.54.82,1.6,2.49,2.44,4.86,2.86,7.8-11.77-5.97-5.74,2.46-13.72-11Z"/>
    <path class="cls-8" d="M518.78,141.14c3.34-4.12,7.52-6.63,11.2-10.14,10.61-10.12,21.95-17.58,34.12-25.58,7.23-4.75,14.35-12.59,22.71-16.21-6.26,12.08-23.03,24.44-32.71,34.3-5.65,5.85-11.25,11.75-16.82,17.68-1.61,1.72-5.45,6.26-6.99,7.42-8.03,8.12-13.16,16.44-19.92,25.32-4.58,6.01-10.71,11.86-15.42,18.13-16.24,21.6-28.45,44.31-39.88,68.73-2.52,5.52-6.16,10.97-8.53,16.53-4.07,9.67-7.43,19.69-11.67,29.28-1.26,2.84-2.87,6.69-4.4,9.39-6.27,11.1-8.29,22.6-11.76,34.72-6.89,23.65-13.91,47.28-17.89,71.62-1.63,9.99-1.16,21.29-2.96,30.76-3.14,16.5-4.54,31.49-5.33,48.27-.33,7.12-3.37,15.55-3.45,22.9-1,19.36-1.05,39.07-1.16,58.46l-.02,91.1c.15,28.91-.5,58.89,2.59,87.62.44,4.12,1.9,9.12,1.98,13.1,1.09,7.45,1.55,44.79-1.49,51.11l-.45.13-1.42-1.34c-.07-3.86.5-6.53-1.6-9.9-2.99-4.81-6.74-9.45-8.53-14.87-3-5.57-9.96-26.38-12.77-33.55-14.03-34.92-25.57-70.8-34.55-107.35-1.27-5.37-1.06-11.74-2.23-17.13-.61-3.25-3.76-8.36-4.08-11.45-1.6-15.29-4.41-30.37-6.38-45.6-.58-4.5-3.58-10.86-3.88-14.69-1.79-22.91-1.57-46.34-.24-69.28.28-4.68,2.61-13.26,3.29-18.34,2.09-15.78,4.45-32.81,7.65-48.34,11.11-54.7,33-106.65,64.38-152.81,6.01-14.31,21.83-32.29,32.4-44.69,2.88-2.7,6.15-7.24,8.54-10.44,3.14-7.72,28.14-34.12,34.98-40.33,8.77-7.96,20.74-17.97,29.83-26.77,5.16-5,16.5-12.31,22.88-17.75Z"/>
    <path class="cls-13" d="M518.78,141.14c3.34-4.12,7.52-6.63,11.2-10.14,10.61-10.12,21.95-17.58,34.12-25.58,7.23-4.75,14.35-12.59,22.71-16.21-6.26,12.08-23.03,24.44-32.71,34.3-5.65,5.85-11.25,11.75-16.82,17.68-1.61,1.72-5.45,6.26-6.99,7.42.68-5.52,23.96-25.86,28.44-32.14l-1.69-1.58c.18-2.6,3.14-4.63,5.29-6.61-5.98,3.57-11.75,7.48-17.29,11.71-5.15,4-21.88,20.12-26.26,21.16Z"/>
    <path class="cls-13" d="M392.46,774.52c1.09,7.45,1.55,44.79-1.49,51.11l-.45.13-1.42-1.34c-.07-3.86.5-6.53-1.6-9.9-2.99-4.81-6.74-9.45-8.53-14.87,4.17,2.29,4.58,11.24,8.74,11.26,6.1-.22,4.5-4.09,4.02-8.36-1.09-9.58.66-18.43.73-28.03Z"/>
    <path class="cls-11" d="M431.09,225.98c1.03,5.41-1.96,7.54-5.68,10.74l-2.85-.3c2.88-2.7,6.15-7.24,8.54-10.44Z"/>
    <path class="cls-13" d="M555.57,113.71c1.01,1.24.85.55.73,2.04l-2.34,1.87c-.34-.26-.75-.85-1.04-1.22.71-1.78.77-1.37,2.66-2.69Z"/>
    <path class="cls-4" d="M478.07,293.24c5.18-9.91,23.27-24.1,33.04-30.04-3.29,6.7-7.4,10.85-11.29,16.82-3.17,4.87-7.27,12.08-10.03,17.31-2.65,6.51-5.58,10.4-8.2,16.3-7.18,16.23-12.23,33.92-17.66,50.82-1.16,3.61-2.23,12.72-3.03,16.83-1.73,8.89-3.77,18.25-4.16,27.28-.42,9.64-.1,19.5-.5,29.17-.24,5.89-2.49,12.39-2.64,18.09-.61,24.49-.39,49.9-.11,74.42l2.11,5.18c4.85,12.14,3,57.92,3.23,74.16.74-2.84.13-1.98,2.08-3.94l.88.08c1.21,4.11-.18,31.33-.89,36.41-1.46,23.83,1.96,51.74.11,76.14.23,8.59.87,19.37-.32,27.81-.66,4.67-3.24,5.03-3.5,11.59.91,9.26,3.94,23.12-2.53,30.97-.68.85-1.44,1.64-2.25,2.36-2.73,15.39-7.62,29.48-9.88,45.79-.85,6.12-7.76,31.18-10.77,37.35-6.47,13.26-15.4,36.94-24.81,47.86-5.44,6.31-8.94,20.11-14.34,21.84-2.04,1.44-3.11,5-4.01,7.39-3.31,8.84-9.35,11.39-11.73,20.09-2.78,1.6-9.24,7.63-11.71,7.21l-.23-.9c4.14-3.94,15.41-31.12,18.44-38.05,5.76-14.48,11.15-26.74,12.48-42.5,1.84-21.85,7.65-41.79,8.45-63.77-.97-17.9.47-39.94,3.14-57.67.88-15.38,2.45-37.42,1.95-52.18-.25-.79-.57-1.71-.62-2.55-1.49-22.22-.77-44.47-.88-66.72-.03-5.81,0-11.49.56-17.28.26-2.76.37-5.84.37-8.63l.35-65.15c.04-8.83-.26-18.57.15-27.43.12-1.31,1.64-3.45,2.57-4.32,1.88-1.74.93-2.7,2.54-4.3.64-5.03.59-15.8.71-21.24-.34-11.94.41-23.88,2.25-35.68,1.6-11.03,2.05-22.92,3.74-33.38,4.76-30.52,13.33-60.33,25.49-88.72,2.34-5.58,6.55-16.82,9.76-21.5,7.37-10.75,14.46-22.65,21.7-33.34Z"/>
    <path class="cls-12" d="M409.38,723.48c-.25-.79-.57-1.71-.62-2.55-1.49-22.22-.77-44.47-.88-66.72-.03-5.81,0-11.49.56-17.28.26-2.76.37-5.84.37-8.63l.35-65.15c.04-8.83-.26-18.57.15-27.43.12-1.31,1.64-3.45,2.57-4.32,1.88-1.74.93-2.7,2.54-4.3.06,3.85.09,7.7.08,11.54.11,11.51,1.85,30.04-3.54,39.91l-.35.63-.24,90.26c-.05,15.26.39,39.04-.98,54.03Z"/>
    <path class="cls-1" d="M414.49,538.64c.11,11.51,1.85,30.04-3.54,39.91l-.35.63c-.65-11.9-.13-23.98.24-35.9,1.67-1.82,2.29-2.59,3.66-4.65Z"/>
    <path class="cls-10" d="M452.98,776.45c.35-4.72-.18-10.33.35-15.41.07-5,2.32-10.86,2.68-15.65.84-11.22.76-16.67,4.99-27.11.23,8.59.87,19.37-.32,27.81-.66,4.67-3.24,5.03-3.5,11.59.91,9.26,3.94,23.12-2.53,30.97-.68.85-1.44,1.64-2.25,2.36l.57-14.57Z"/>
    <path class="cls-12" d="M457.19,757.68c.91,9.26,3.94,23.12-2.53,30.97-.68.85-1.44,1.64-2.25,2.36l.57-14.57c1.41-2.58,3.69-15.36,4.21-18.76Z"/>
    <path class="cls-12" d="M453.5,530.24l2.11,5.18c4.85,12.14,3,57.92,3.23,74.16.74-2.84.13-1.98,2.08-3.94l.88.08c1.21,4.11-.18,31.33-.89,36.41-.58-4.53-2.25-7.88-2.6-12.72-2.04-28.46-.18-56.99-3.13-85.41-.51-4.9-1.68-8.71-1.67-13.77Z"/>
    <path class="cls-2" d="M383.36,939.59c1.05-.73,1.67-1.09,2.55-2.03,0,2.72-12.19,21.6-9.52,28.07,4.08-9,11.2-6.12,12.34-22.33,1.45-1.21,5.97-5.49,7.4-5.58-.4,2.48-1.99,4.06-3.54,6.13-2.04,1.44-3.11,5-4.01,7.39-3.31,8.84-9.35,11.39-11.73,20.09-2.78,1.6-9.24,7.63-11.71,7.21l-.23-.9c4.14-3.94,15.41-31.12,18.44-38.05Z"/>
    <path class="cls-1" d="M404.29,833.32c-.97-17.9.47-39.94,3.14-57.67.05,13.77,5.64,41.3-1.45,52.63-1,1.59-1.33,3.22-1.69,5.04Z"/>
    <path class="cls-2" d="M478.07,293.24c5.18-9.91,23.27-24.1,33.04-30.04-3.29,6.7-7.4,10.85-11.29,16.82-3.17,4.87-7.27,12.08-10.03,17.31-.33-6.33,5.41-8.37,5.14-14.06-.14-2.95-.55-3.67.87-5.54l-.84-.64c-6.28,2.33-14.14,15.43-16.89,16.13Z"/>
    <path class="cls-10" d="M417.38,470.18c3.03,12.19,2.23,18.1-1.29,29.7-.51,1.69-.18,3.7-.97,5.98-.34-11.94.41-23.88,2.25-35.68Z"/>
    <path class="cls-4" d="M575.36,167.29c7.34-.05,16.09,1.82,17.76,10.42,4.11,21.21-11.19,39.02-22.94,54.71-5.47,8.42-12.02,12.56-20.03,18.03-11.04,7.55-16.44,10.32-29.3,13.48-8.66.73-16.08-6.34-17.45-14.75-2.97-18.08,7.56-32.54,16.66-46.96,6.03-9.57,11.98-11.72,20.49-17.57,10.73-7.38,21.59-15.21,34.81-17.36Z"/>
    <path class="cls-5" d="M601.28,224.64c2.26-1.21,2.58-1.46,4.9-2.28,3.56-1.27,8.46-7.15,12.58-7.68,0,1.96-4.67,7.12-6.23,8.67-1.9,1.86-3.82,3.7-5.76,5.52l-3.65.19c-1.74-1.4-1.24-1.56-1.85-4.41Z"/>
  </g>
</svg>